<?xml version="1.0" encoding="UTF-8"?>
<svg width="100px" height="100px" viewBox="0 0 100 100" version="1.1" xmlns="http://www.w3.org/2000/svg" xmlns:xlink="http://www.w3.org/1999/xlink">
  <circle cx="50" cy="50" r="25" fill="#FFB300"/>
  <g stroke="none" stroke-width="1" fill="none" fill-rule="evenodd">
    <g fill="#FFB300">
      <rect x="47.5" y="5" width="5" height="15" rx="2.5"/>
      <rect x="47.5" y="80" width="5" height="15" rx="2.5"/>
      <rect x="80" y="47.5" width="15" height="5" rx="2.5"/>
      <rect x="5" y="47.5" width="15" height="5" rx="2.5"/>
      <rect transform="translate(26.5, 26.5) rotate(45) translate(-26.5, -26.5)" x="24" y="16.5" width="5" height="20" rx="2.5"/>
      <rect transform="translate(73.5, 73.5) rotate(45) translate(-73.5, -73.5)" x="71" y="63.5" width="5" height="20" rx="2.5"/>
      <rect transform="translate(73.5, 26.5) rotate(135) translate(-73.5, -26.5)" x="71" y="16.5" width="5" height="20" rx="2.5"/>
      <rect transform="translate(26.5, 73.5) rotate(135) translate(-26.5, -73.5)" x="24" y="63.5" width="5" height="20" rx="2.5"/>
    </g>
  </g>
</svg>